<?xml version="1.0" encoding="UTF-8"?>
<svg width="23px" height="23px" viewBox="0 0 23 23" version="1.1" xmlns="http://www.w3.org/2000/svg" xmlns:xlink="http://www.w3.org/1999/xlink">
    <!-- Generator: Sketch 43.2 (39069) - http://www.bohemiancoding.com/sketch -->
    <title>velo-red</title>
    <desc>Created with Sketch.</desc>
    <defs></defs>
    <g id="Page-1" stroke="none" stroke-width="1" fill="none" fill-rule="evenodd">
        <circle id="Oval-7-Copy-4" fill="#FFFFFF" cx="11.5" cy="11.5" r="10.5"></circle>
        <circle id="Oval-8-Copy-4" fill="#DE0021" cx="11.5" cy="11.5" r="9.5"></circle>
        <path d="M14,6 L15,6.5 L15,8 L10,8 L10,7 L11,7 L11,6.5 L10,6 L8,6 L8,7 L9,7 L9,8 L7.75,10.125 C7.50461,10.06012 7.26579,10 7,10 C5.34314,10 4,11.34314 4,13 C4,14.65686 5.34314,16 7,16 C8.65686,16 10,14.65686 10,13 L11,13 L13.5,9 L15,9 L15.53125,10.0625 C14.10342,10.29297 13,11.50713 13,13 C13,14.65685 14.34315,16 16,16 C17.65685,16 19,14.65685 19,13 C19,11.56061 17.97744,10.35339 16.625,10.0625 L16,8.5 L16,6 L15.5,5.5 L14,5 L14,6 Z M9.5,9 L12.5,9 L10.5,12 L9.8125,12 C9.60043,11.40881 9.22517,10.88432 8.71875,10.53125 L9.5,9 L9.5,9 Z M7,11.25 C7.9665,11.25 8.75,12.0335 8.75,13 C8.75,13.9665 7.9665,14.75 7,14.75 C6.0335,14.75 5.25,13.9665 5.25,13 C5.25,12.0335 6.0335,11.25 7,11.25 L7,11.25 Z M16,11.25 C16.9665,11.25 17.75,12.0335 17.75,13 C17.75,13.9665 16.9665,14.75 16,14.75 C15.0335,14.75 14.25,13.9665 14.25,13 C14.25,12.0335 15.0335,11.25 16,11.25 L16,11.25 Z" id="path5430" fill="#FFFFFF"></path>
    </g>
</svg>